<svg id="visual" viewBox="0 0 900 600" width="900" height="600" xmlns="http://www.w3.org/2000/svg" xmlns:xlink="http://www.w3.org/1999/xlink" version="1.1"><rect x="0" y="0" width="900" height="600" fill="#f9fcfe"></rect><path d="M0 376L25 389.2C50 402.3 100 428.7 150 442C200 455.3 250 455.7 300 455.3C350 455 400 454 450 461C500 468 550 483 600 499.3C650 515.7 700 533.3 750 512.3C800 491.3 850 431.7 875 401.8L900 372L900 601L875 601C850 601 800 601 750 601C700 601 650 601 600 601C550 601 500 601 450 601C400 601 350 601 300 601C250 601 200 601 150 601C100 601 50 601 25 601L0 601Z" fill="#0066FF" stroke-linecap="round" stroke-linejoin="miter"></path></svg>